<svg width="160" height="56" fill="none" xmlns="http://www.w3.org/2000/svg"><path d="M159.3 28.07a2.25 2.25 0 0 0-1.67-.7h-.41c.32-1.58.5-2.65.5-3.2 0-.93-.23-1.68-.69-2.14-.46-.51-1.1-.75-1.98-.75-.92 0-1.98.33-3.14 1.03-1.15.7-2.3 1.8-3.5 3.44a25.05 25.05 0 0 0-3.27 6.22c.14-1.3.27-2.41.46-3.3.18-.88.41-1.9.69-3.11.46-1.67.65-2.74.65-3.2 0-.42-.14-.7-.37-.84a2.55 2.55 0 0 0-1.25-.24c-1.1 0-1.94.2-2.53.6a3.42 3.42 0 0 0-1.3 1.91 35.7 35.7 0 0 0-1.6 10.5c-.88.8-1.85 1.54-2.91 2.1a9.61 9.61 0 0 1-4.52 1.4c-2.08 0-3.46-.7-4.2-2.05 3.46-.84 5.95-2 7.38-3.49A7.12 7.12 0 0 0 137.8 27c0-1.77-.51-3.11-1.53-4.14a5.54 5.54 0 0 0-4.1-1.53c-1.89 0-3.6.51-5.12 1.53a10.48 10.48 0 0 0-3.55 4.19 10 10 0 0 0-.73 1.95c-1.2.23-2.22.37-3.05.37a12.6 12.6 0 0 0 1.06-4.55c0-1.17-.27-2.05-.78-2.65-.5-.6-1.2-.93-2.08-.93-.96 0-1.84.28-2.58.88a5.64 5.64 0 0 0-1.8 2.32c-.46.93-.64 1.91-.64 2.93 0 1.16.23 2.19.65 3.07-.88 1.58-2.22 3.67-3.97 6.32-.42-5.44-.6-9.85-.6-13.3 0-.78-.18-1.34-.55-1.71-.37-.33-.92-.51-1.7-.51-1.02 0-1.76.18-2.27.56-.5.37-.78 1.06-.78 2.04v1.53c0 2.42.1 5.12.32 8.18a38.26 38.26 0 0 1-2.49 2.65c-.83.75-1.52 1.07-2.07 1.07-.37 0-.7-.14-.92-.46a2.17 2.17 0 0 1-.37-1.3c0-.89.41-3.21 1.24-7.02.74-3.3 1.1-5.35 1.1-6.09 0-.46-.13-.74-.4-.93a3.33 3.33 0 0 0-1.44-.23c-.96 0-1.7.18-2.16.56-.51.37-.83 1.02-1.06 1.9a53.4 53.4 0 0 1-2.17 6.65 19.5 19.5 0 0 1-2.12 4.04c-.65.88-1.2 1.35-1.66 1.35a.76.76 0 0 1-.7-.37c-.13-.24-.22-.7-.22-1.3 0-1.03.27-3.12.87-6.23.19-.89.42-1.86.7-2.98.32-1.34.5-2.13.5-2.41 0-.42-.14-.75-.37-.93-.23-.19-.69-.33-1.33-.33-1.16 0-1.99.19-2.5.56-.5.37-.92 1.02-1.24 1.9-.7 2.1-1.15 4.05-1.47 5.9-.05.2-.05.43-.1.61-.55.33-1.01.51-1.43.51-.73 0-1.1-.5-1.1-1.53 0-.28.14-1.02.37-2.23a22 22 0 0 0 .41-2.8c0-1.9-.97-2.87-2.86-2.87a6.2 6.2 0 0 0-3.18 1.02 12.8 12.8 0 0 0-3.55 3.44 25.03 25.03 0 0 0-3.27 6.23c.14-1.3.28-2.42.46-3.3.18-.89.41-1.9.7-3.12.45-1.67.64-2.74.64-3.2 0-.42-.14-.7-.37-.84a2.55 2.55 0 0 0-1.25-.23c-1.1 0-1.93.18-2.53.6a3.43 3.43 0 0 0-1.3 1.9 33.05 33.05 0 0 0-1.28 6c-1.2.14-2.31.24-3.32.24-.37 0-.65 0-.93-.05-.83-.05-1.52-.1-2.12-.1-.32 0-.69.24-1.1.66a6.8 6.8 0 0 0-1.02 1.53c-.27.6-.41 1.07-.37 1.49.51 2.41.97 4.7 1.25 6.83.32 2.14.46 4.41.46 6.7 0 3.06-.46 4.6-1.34 4.6-.46 0-.83-1.63-1.01-4.84-.19-3.2-.33-6.32-.33-9.39 0-2.18.14-4.74.47-7.62 8.25-8.18 12.35-15.76 12.35-22.73 0-2.09-.37-3.76-1.15-5.02A3.6 3.6 0 0 0 62.7.2c-2.53 0-4.89 1.9-7 5.76-2.13 3.8-3.83 8.69-5.03 14.5-.97 4.6-1.52 9.2-1.75 13.7-.83.9-1.57 1.59-2.17 2.05a5.11 5.11 0 0 1-3.18 1.02c-.79 0-1.38-.27-1.85-.79a5.08 5.08 0 0 1-1.01-2.6 67.71 67.71 0 0 0 7.88-13.8c1.94-4.65 2.9-8.74 2.9-12.27 0-2.46-.4-4.32-1.19-5.67-.83-1.3-1.94-2-3.32-2-2.49 0-4.66 1.68-6.45 4.98-1.8 3.3-3.19 7.3-4.1 11.9a63.73 63.73 0 0 0-1.4 12.35c0 1.58.15 3.03.33 4.33a19.64 19.64 0 0 1-2.53 2.46 5.11 5.11 0 0 1-3.18 1.02c-.79 0-1.39-.28-1.85-.79a5.08 5.08 0 0 1-1.01-2.6 67.71 67.71 0 0 0 7.88-13.8c1.94-4.65 2.9-8.74 2.9-12.27 0-2.47-.41-4.32-1.2-5.67-.82-1.3-1.93-2-3.31-2-2.5 0-4.66 1.67-6.46 4.97-1.8 3.3-3.18 7.3-4.1 11.9a63.73 63.73 0 0 0-1.38 12.36c0 1.58.13 3.02.32 4.37a31.64 31.64 0 0 1-2.26 2.42c-.78.74-1.48 1.07-2.03 1.07-.37 0-.64-.14-.88-.42-.23-.28-.32-.6-.32-1.07 0-1.35.32-3.72 1.02-7.11.46-2.33.64-3.81.64-4.46 0-1.03-.74-1.54-2.16-1.54-.7 0-1.34.05-1.94.19a2.85 2.85 0 0 0-.55-1.35c-.24-.23-.65-.37-1.3-.37-2.02 0-3.96.65-5.76 1.95a17.72 17.72 0 0 0-4.29 5.3A14.37 14.37 0 0 0 0 34.95c0 2.18.55 3.9 1.61 5.25 1.11 1.35 2.54 2 4.38 2 2.3 0 4.25-1.26 5.77-3.72a6.14 6.14 0 0 0 1.84 2.74c.83.65 1.7.98 2.67.98 1.25 0 2.59-.51 3.92-1.54.93-.7 1.8-1.53 2.63-2.41.1.14.14.28.19.42a6.11 6.11 0 0 0 5.76 3.53c1.89 0 3.55-.51 5.02-1.49 1.02-.7 1.99-1.53 2.9-2.5.1.13.15.32.24.46a6.1 6.1 0 0 0 5.76 3.53c1.9 0 3.55-.51 5.03-1.49l1.15-.84c.1 5.07.55 8.97 1.34 11.62.87 3.02 2.4 4.51 4.52 4.51 1.66 0 3.04-.84 4.05-2.51 1.02-1.67 1.52-4.14 1.52-7.34 0-1.44-.13-3.3-.36-5.53a51.03 51.03 0 0 0-.97-6.09c1.33.28 2.35.42 3.04.42.65 0 1.25-.05 1.75-.1 0 2.56.23 4.47.7 5.63.46 1.16 1.24 1.76 2.35 1.76.92 0 1.56-.23 1.98-.74.41-.51.78-1.44 1.1-2.83a35.54 35.54 0 0 1 1.71-5.16c.7-1.63 1.43-2.93 2.12-3.95.74-.98 1.3-1.49 1.75-1.49.33 0 .51.23.51.7 0 .18-.05.6-.1 1.2-.08.47-.13.89-.13 1.35 0 1.35.41 2.47 1.2 3.26a4.9 4.9 0 0 0 3.55 1.2c.97 0 1.84-.18 2.72-.55v.55c0 1.86.41 3.35 1.24 4.6.83 1.21 1.94 1.86 3.23 1.86 1.15 0 2.21-.55 3.23-1.62 1.01-1.07 1.75-2.65 2.26-4.65 0 2 .32 3.53.97 4.6.64 1.12 1.7 1.63 3.08 1.63a8.6 8.6 0 0 0 4.94-1.49 15.5 15.5 0 0 0 2.35-1.95c.23.84.5 1.53.92 2.04.7.93 1.62 1.44 2.86 1.44 1.1 0 2.07-.32 2.9-.93.83-.6 1.85-1.76 3.05-3.48a85.58 85.58 0 0 0 2.8-4.32c1.16.37 2.36.5 3.65.5.5 0 1.06-.04 1.57-.08a8.6 8.6 0 0 0 2.49 5.71c1.7 1.67 4.1 2.51 7.2 2.51 2.25 0 4.37-.56 6.35-1.67.7-.37 1.3-.8 1.9-1.21.09.42.18.79.32 1.12.46 1.16 1.24 1.76 2.35 1.76.92 0 1.61-.23 2.03-.7.41-.46.78-1.44 1.1-2.83a35.48 35.48 0 0 1 1.7-5.16c.7-1.63 1.44-2.93 2.13-3.95.7-.98 1.24-1.49 1.66-1.49.14 0 .28.05.37.19.09.14.14.28.14.51 0 .19-.05.51-.1.98-.04.65-.09 1.25-.09 1.8 0 1.03.28 1.82.88 2.43.55.6 1.29.88 2.07.88 1.02 0 1.98-.37 2.81-1.12a7.89 7.89 0 0 0 1.99-2.74c.18-.46.27-.84.27-1.25.14-.6-.09-1.21-.55-1.63ZM57.53 14.5a52.33 52.33 0 0 1 2.3-7.16c.79-1.81 1.43-2.7 1.99-2.7.73 0 1.1.89 1.1 2.7-.04 2.56-.69 5.3-1.93 8.18a31.87 31.87 0 0 1-5.44 8.41c.55-3.3 1.2-6.46 1.98-9.43Zm-46.84 19a7.78 7.78 0 0 1-1.3 3.07c-.6.8-1.2 1.17-1.84 1.17-.64 0-1.15-.24-1.52-.65-.37-.42-.55-1.12-.55-2.05 0-1.67.32-3.2.92-4.7a9.2 9.2 0 0 1 2.49-3.57 5.52 5.52 0 0 1 3.41-1.4l-1.61 8.14Zm16.87-16.03c.65-3.62 1.38-6.69 2.26-9.15.83-2.46 1.61-3.67 2.3-3.67.83 0 1.25 1.11 1.25 3.39 0 2.88-.6 6.04-1.84 9.53a57.87 57.87 0 0 1-4.98 10.4c0-3.39.37-6.87 1.01-10.5Zm13.92 0a58.7 58.7 0 0 1 2.26-9.15c.83-2.46 1.62-3.67 2.3-3.67.84 0 1.25 1.11 1.25 3.39 0 2.88-.6 6.04-1.84 9.53a57.86 57.86 0 0 1-4.98 10.4c0-3.39.37-6.87 1.01-10.5Zm86.17 14.69c0-1.81.37-3.35 1.11-4.6.74-1.26 1.66-1.9 2.77-1.9.5 0 .96.18 1.24.5.32.33.46.8.46 1.35 0 1.12-.5 2.05-1.47 2.88a9.94 9.94 0 0 1-4.1 1.86v-.1Z" fill="#2BB673"/></svg>