<svg width="160" height="56" fill="none" xmlns="http://www.w3.org/2000/svg"><path d="M159.291 28.07a2.254 2.254 0 0 0-1.66-.697h-.415c.323-1.58.507-2.65.507-3.207 0-.93-.23-1.673-.691-2.138-.461-.511-1.107-.743-1.983-.743-.922 0-1.982.325-3.135 1.022-1.152.697-2.305 1.813-3.504 3.44-1.198 1.58-2.305 3.67-3.273 6.226.138-1.3.276-2.416.461-3.3.184-.882.415-1.904.691-3.113.462-1.673.646-2.742.646-3.206 0-.419-.138-.698-.369-.837-.23-.14-.645-.232-1.245-.232-1.106 0-1.936.186-2.535.604-.6.418-1.015 1.022-1.291 1.905-1.061 3.3-1.568 6.832-1.614 10.503-.876.79-1.844 1.534-2.905 2.091-1.705.93-3.181 1.395-4.518 1.395-2.075 0-3.458-.697-4.195-2.045 3.457-.837 5.947-1.999 7.376-3.486 1.476-1.487 2.167-3.206 2.167-5.251 0-1.766-.507-3.114-1.521-4.136-1.014-1.023-2.398-1.534-4.103-1.534-1.891 0-3.597.511-5.118 1.534-1.522 1.022-2.674 2.416-3.55 4.182-.323.65-.553 1.255-.738 1.952-1.199.233-2.213.372-3.043.372.692-1.72 1.061-3.253 1.061-4.554 0-1.162-.277-2.045-.784-2.65-.507-.604-1.199-.929-2.075-.929-.968 0-1.844.279-2.582.883a5.644 5.644 0 0 0-1.798 2.324c-.461.93-.645 1.905-.645 2.928 0 1.161.23 2.184.645 3.067-.876 1.58-2.213 3.671-3.965 6.32-.415-5.437-.599-9.852-.599-13.291 0-.79-.184-1.348-.553-1.72-.369-.325-.922-.51-1.706-.51-1.014 0-1.752.185-2.259.557-.507.372-.784 1.069-.784 2.045v1.533c0 2.417.092 5.112.323 8.18-1.015 1.161-1.844 2.044-2.49 2.648-.83.744-1.521 1.07-2.075 1.07-.368 0-.691-.14-.922-.465-.23-.326-.369-.744-.369-1.302 0-.883.415-3.206 1.245-7.017.738-3.3 1.107-5.344 1.107-6.088 0-.465-.139-.744-.415-.93-.277-.139-.738-.232-1.43-.232-.968 0-1.705.186-2.166.558-.507.372-.83 1.022-1.06 1.905-.692 2.65-1.43 4.833-2.168 6.646-.737 1.812-1.475 3.16-2.12 4.043-.646.883-1.2 1.348-1.66 1.348-.323 0-.553-.14-.692-.372-.138-.232-.23-.697-.23-1.301 0-1.023.276-3.114.876-6.228.184-.883.415-1.859.691-2.974.323-1.348.507-2.138.507-2.416 0-.419-.138-.744-.368-.93-.231-.186-.692-.325-1.337-.325-1.153 0-1.983.186-2.49.557-.507.372-.922 1.023-1.245 1.906a40.923 40.923 0 0 0-1.475 5.902c-.046.186-.046.418-.093.604-.553.325-1.014.511-1.429.511-.737 0-1.106-.511-1.106-1.533 0-.28.138-1.023.369-2.231.276-1.487.415-2.417.415-2.789 0-1.905-.969-2.88-2.859-2.88-.968 0-2.028.325-3.181 1.022-1.153.697-2.352 1.812-3.55 3.439-1.199 1.58-2.305 3.671-3.274 6.227.139-1.301.277-2.417.461-3.3.185-.883.415-1.905.692-3.113.461-1.673.645-2.742.645-3.207 0-.418-.138-.697-.368-.836-.23-.14-.646-.233-1.245-.233-1.107 0-1.937.186-2.536.604-.6.419-1.014 1.023-1.29 1.906-.6 1.952-1.061 3.95-1.292 5.995-1.198.14-2.305.232-3.32.232-.368 0-.645 0-.921-.046-.83-.047-1.522-.093-2.121-.093-.323 0-.692.232-1.107.65a6.793 6.793 0 0 0-1.014 1.534c-.277.604-.415 1.069-.369 1.487.507 2.417.968 4.694 1.245 6.832.323 2.137.461 4.415.461 6.692 0 3.067-.461 4.6-1.337 4.6-.461 0-.83-1.626-1.014-4.833-.185-3.206-.323-6.32-.323-9.387 0-2.184.138-4.74.461-7.622 8.253-8.179 12.356-15.754 12.356-22.725 0-2.091-.369-3.764-1.153-5.02C65.146.79 64.085.187 62.702.187c-2.536 0-4.887 1.905-7.008 5.763-2.12 3.81-3.827 8.69-5.025 14.5-.968 4.6-1.522 9.2-1.752 13.709-.83.883-1.568 1.58-2.167 2.044-.922.698-1.983 1.023-3.181 1.023-.784 0-1.383-.279-1.845-.79-.46-.511-.83-1.394-1.014-2.603 3.32-4.554 5.948-9.155 7.884-13.802C50.531 15.383 51.5 11.293 51.5 7.76c0-2.463-.415-4.322-1.199-5.67C49.47.79 48.364.093 46.98.093c-2.49 0-4.656 1.673-6.454 4.973s-3.181 7.296-4.104 11.897c-.922 4.6-1.383 8.737-1.383 12.361 0 1.58.139 3.021.323 4.323-1.014 1.115-1.844 1.951-2.536 2.462-.922.698-1.982 1.023-3.18 1.023-.785 0-1.384-.279-1.845-.79-.461-.511-.83-1.394-1.014-2.603 3.32-4.554 5.947-9.155 7.884-13.802 1.936-4.647 2.904-8.737 2.904-12.269 0-2.463-.415-4.322-1.199-5.67C35.546.698 34.44 0 33.056 0c-2.489 0-4.656 1.673-6.454 4.973s-3.18 7.296-4.103 11.897c-.922 4.6-1.383 8.737-1.383 12.361 0 1.58.138 3.021.323 4.369-.922 1.069-1.66 1.859-2.26 2.417-.783.743-1.475 1.069-2.028 1.069-.369 0-.646-.14-.876-.419-.23-.279-.323-.604-.323-1.069 0-1.347.323-3.717 1.014-7.11.461-2.324.646-3.81.646-4.461 0-1.023-.738-1.534-2.167-1.534-.692 0-1.337.046-1.936.186-.139-.65-.323-1.115-.554-1.348-.23-.232-.645-.372-1.29-.372-2.03 0-3.966.651-5.764 1.952-1.752 1.487-3.18 3.207-4.287 5.298C.507 30.347 0 32.578 0 34.948c0 2.184.553 3.904 1.614 5.251 1.106 1.348 2.535 1.998 4.38 1.998 2.305 0 4.241-1.254 5.763-3.717.415 1.162 1.014 2.045 1.844 2.742.83.65 1.706.975 2.674.975 1.245 0 2.582-.51 3.919-1.533.922-.697 1.798-1.534 2.628-2.417.092.14.138.28.184.419 1.245 2.37 3.181 3.532 5.763 3.532 1.89 0 3.55-.512 5.026-1.488a18.145 18.145 0 0 0 2.904-2.51c.092.14.139.326.23.466 1.245 2.37 3.182 3.532 5.764 3.532 1.89 0 3.55-.512 5.025-1.488.369-.279.784-.557 1.153-.836.092 5.065.553 8.97 1.337 11.618.876 3.02 2.397 4.508 4.518 4.508 1.66 0 3.043-.837 4.057-2.51 1.014-1.673 1.522-4.136 1.522-7.342 0-1.44-.139-3.3-.37-5.53-.23-2.231-.552-4.276-.967-6.089 1.337.28 2.35.419 3.042.419.646 0 1.245-.047 1.753-.093 0 2.556.23 4.461.691 5.623.461 1.162 1.245 1.766 2.351 1.766.922 0 1.568-.232 1.983-.744.415-.51.784-1.44 1.106-2.834.461-1.813 1.015-3.532 1.706-5.159.692-1.626 1.43-2.928 2.121-3.95.738-.976 1.291-1.487 1.752-1.487.323 0 .507.232.507.697 0 .186-.046.604-.092 1.208a6.688 6.688 0 0 0-.138 1.348c0 1.347.415 2.463 1.198 3.253.83.79 1.983 1.208 3.55 1.208.969 0 1.845-.186 2.72-.557v.557c0 1.86.415 3.346 1.245 4.601.83 1.208 1.937 1.859 3.228 1.859 1.152 0 2.213-.558 3.227-1.627 1.014-1.069 1.752-2.648 2.26-4.647 0 1.998.322 3.532.967 4.601.646 1.115 1.706 1.627 3.09 1.627 1.844 0 3.503-.512 4.933-1.488a15.508 15.508 0 0 0 2.351-1.952c.23.837.507 1.534.922 2.045.691.93 1.614 1.441 2.858 1.441 1.107 0 2.075-.325 2.905-.93.83-.604 1.844-1.766 3.043-3.485 1.014-1.487 1.982-2.928 2.812-4.322 1.153.372 2.352.511 3.642.511.508 0 1.061-.046 1.568-.093.184 2.37 1.014 4.276 2.49 5.717 1.706 1.672 4.103 2.509 7.192 2.509 2.259 0 4.38-.558 6.362-1.673.692-.372 1.291-.79 1.891-1.208.092.418.184.79.322 1.115.461 1.162 1.245 1.766 2.352 1.766.922 0 1.613-.232 2.028-.697.415-.465.784-1.44 1.107-2.835.461-1.812 1.014-3.532 1.706-5.158.691-1.627 1.429-2.928 2.121-3.95.691-.977 1.244-1.488 1.659-1.488.139 0 .277.047.369.186.092.14.138.279.138.511 0 .186-.046.512-.092.976-.046.65-.092 1.255-.092 1.813 0 1.022.277 1.812.876 2.416.553.605 1.291.883 2.075.883 1.014 0 1.982-.371 2.812-1.115a7.885 7.885 0 0 0 1.983-2.742c.184-.465.276-.837.276-1.255.139-.604-.092-1.208-.553-1.626ZM57.538 14.5c.784-2.975 1.522-5.345 2.306-7.157.783-1.813 1.429-2.696 1.982-2.696.738 0 1.107.883 1.107 2.696-.047 2.556-.692 5.298-1.937 8.179-1.245 2.928-3.089 5.716-5.44 8.412.553-3.3 1.199-6.46 1.982-9.434ZM10.696 33.507c-.276 1.255-.691 2.277-1.29 3.067-.6.79-1.2 1.162-1.845 1.162s-1.152-.232-1.521-.65c-.37-.419-.554-1.116-.554-2.045 0-1.673.323-3.207.923-4.694.599-1.487 1.429-2.65 2.49-3.579 1.06-.883 2.166-1.347 3.41-1.394l-1.613 8.133ZM27.57 17.474c.646-3.625 1.384-6.692 2.26-9.155.83-2.463 1.613-3.672 2.305-3.672.83 0 1.245 1.116 1.245 3.393 0 2.881-.6 6.041-1.845 9.527-1.244 3.485-2.904 6.97-4.979 10.41 0-3.393.369-6.878 1.014-10.503Zm13.924 0c.645-3.625 1.383-6.692 2.26-9.155.829-2.463 1.613-3.672 2.304-3.672.83 0 1.245 1.116 1.245 3.393 0 2.881-.6 6.041-1.844 9.527-1.245 3.485-2.905 6.97-4.98 10.41 0-3.393.37-6.878 1.015-10.503Zm86.169 14.685c0-1.812.369-3.346 1.107-4.6.737-1.255 1.66-1.906 2.766-1.906.507 0 .968.186 1.245.511.323.326.461.79.461 1.348 0 1.115-.507 2.045-1.475 2.881-1.015.837-2.352 1.441-4.104 1.86v-.094Z" fill="#ffffff"/></svg>