<svg width="223" height="356" fill="#2BB673" xmlns="http://www.w3.org/2000/svg"><path d="M64.7 232.6a38 38 0 0 0-2.9 15c0 3 .7 5.2 1.8 6.5a6.3 6.3 0 0 0 4.8 2.2c2 0 4-1.3 6-3.8 2-2.4 3.3-5.7 4.2-9.7l5.3-26.1c-4 0-7.5 1.5-11 4.4a28 28 0 0 0-8.2 11.5ZM155.4 159.4c0-5.8-1-8.7-3.5-8.7-1.8 0-3.8 3-6.2 8.7v.2c-2.4 5.7-4.9 13.3-7.3 22.8-2.4 9.5-4.7 19.5-6.4 30a109 109 0 0 0 17.5-26.7 77.3 77.3 0 0 0 6-26.3Z"/><path d="m215 242.4-1-.5c0-.2-.1-.6.3-.4.2 0 .5 0 .7-.5.2-.4 0-.6 0-1 0-.3 0-.7-.2-1 .2.3.4.5.8 0 1.1-.8 2.3-1.5 2.5-3 0-.5.2-1 .4-1.4h-3.7v2.7c0 .4 0 .6-.3 1-.2-1.2-.4-2.4-.4-3.7h.4c0-.9-.2-1.8-.6-2.6 0-1.1 0-2.5.2-3.6.4-2.9.4-5.7.4-8.6-.2-2.4-.4-4.7-1.3-6.9v-1.7c0-3.4-.7-6.7-1.5-10 0-.4-.3-.7-.5-.9l-.2-.4c0-.3-.2-.5-.5-.5h-.2.2l.3-.2c2 .2 3.7 2.7 3 4.7 0 .2-.4.4 0 .6.5.2.7-.2 1-.4.2-.3.2-.5.2-1a5 5 0 0 0-2.2-4.6c-.7-.4-1.4-.2-1.8-.6-.5-.5.2-1.4-.2-2-.3-4.2-1-8.7-1.6-12.9-.4-2.8-.6-5.5-2.6-8-.7-.8-1.4-1.5-2.3-2.1.7-2 1-4 1.2-6.2l.2-.3c.4-.8.6-.8 1.3-.4.9.7 1.6 1.3 1.6 2.4 0 1 .2 1.8-.7 2.5-.5.4 0 1 .2 1.3.5.4.7.2.9-.2a5.8 5.8 0 0 0 .9-5.3c-.9-2.5-2.5-4.2-5.3-4.2h-.7a37.7 37.7 0 0 1-4.2-4.2c-.2-1.2-1.3-1.2-2.2-1.6 0-1.1-.7-2.2-1.3-3-.7-1-1.1-1.9-1-3 .3-.9-.1-2-.4-2.8l-.6-2c-.3-.3 0-.5-.3-.7-.2-.4-.2-1.1-.6-1.6l-.2-.4c-.3-.2 0-.4-.3-.7l-.2-.4c-.2-.2 0-.4-.2-.7l-1.3-2.2c-2-3.7-4.5-7.5-8-10.2-.4-.2-.7-.6-.9-1 0-.3-.2-.5-.4-.7-.7-2.2-1.4-4.7-1.6-7.1.2-.5.5-.7 1-.5 1.5 1 2.8 2.3 3.7 4 .2.5.2 1 0 1.4-.2.4 0 .6.2.8.4.3.9 0 .9-.4.2-1.3.4-2.7-.5-3.8-.6-.9-1-1.7-2-2.4-2-2-3.7-2.4-5.7-.9-.2 0-.2.2-.5.2l-1-.2c-1.6-.2-3-1.3-4.5-1.3-.9-.2-1.5-.9-2-1.6-1.5-2-3.3-3.7-5.3-5.3l-.9-.6 1.6-1.8c.9-1.1 2-2.2 2.9-3.6.2 0 .2-.2.2-.2.2 0 .2-.2.2-.2.2 0 .2-.2.2-.2.2 0 .2-.2.2-.2.3 0 .3-.3.3-.3.6-.6 1.3-1 1.7-2l3.8-3.7c.9-.9 2-1.6 2.6-2.7.3 0 .3-.2.3-.2.2 0 .2-.2.2-.2.2 0 .2-.2.2-.2.2 0 .2-.3.2-.3.5 0 .7-.2 1-.6.8-.7 1.5-1.1 2.1-2 .3 0 .3 0 .3-.2.4 0 .6-.3.8-.7.3 0 .3-.2.5-.2.6-.5 1.3-.9 2-1.6.2 0 .2 0 .2-.2.2 0 .4-.2.4-.4.3 0 .3 0 .3-.3.2 0 .4-.2.4-.4.2 0 .2 0 .2-.2.2 0 .5-.2.5-.5l.4-.2c2.9-1.5 5.5-3 8.6-4.2 1-.2 1.8-.6 2.5-1.5-1.1-.3-2.2.4-2.9-1-2.7-.6-5.3-.8-8-.8-4.4-.2-9-.2-13.5.9l-9 1.8c-2.3.4-4.5.6-6.7 1.3h-.7c.3-.7 1-1 1.2-1.6.4-.2.6-.6.8-1 .7-.5 1-1.2 1.6-1.8 3.8-5.1 8.2-9.8 13-14.2 2.3-2 4.3-3.8 6.2-6 .3 0 .3-.2.3-.2.2 0 .2-.2.2-.2.2 0 .2-.3.2-.3.2 0 .2-.2.2-.2.3 0 .3-.2.3-.2.2 0 .2-.2.2-.2.6-.2 1-.7 1.3-1.1.2 0 .2-.2.2-.2.2 0 .2-.3.2-.3l.3-.2c.2 0 .2-.2.2-.2.2 0 .2-.2.2-.2l7.3-6c.2 0 .5-.2.5-.4l.2-.3-.2.3c.2 0 .2 0 .2-.3 1.3-.6 2.4-1.5 3.7-2.6.5 0 .7-.2 1-.7l3-2 .2-.2-.2.2c.2 0 .2 0 .2-.2.3 0 .5 0 .5-.2.2 0 .2 0 .2-.2.2 0 .5 0 .5-.3.2 0 .4 0 .4-.2 2.2-1.3 4.6-2.4 6.9-3.8.6-.2 1.3-.4 2-.8 4-1.1 7.7-3 11.5-4.5-.3-.4-.7-.4-1.2-.4-4.2-.7-8.4-.4-12.8-.7h-1.3c-1.8-.2-3.6 0-5.3 0v.3h-.7c-.9 0-2 0-2.9.2-.6 0-1.3 0-2 .2h-.4c-.7 0-1.3 0-1.8.2h-.2c-.7 0-1.3 0-2 .2a83.7 83.7 0 0 0-22.8 5l-.6.3c-.3 0-.7 0-1 .5-.2 0-.4 0-.6.2-.2 0-.7 0-.9.5-.2 0-.4 0-.6.2h-.5c-.2 0-.4 0-.7.2-.4 0-1 .2-1.5.4l-5.3 2.3c-.2.2-.5.4-.9.2 1.1-2 2.2-3.8 3.1-5.8 3.3-7.7 6.2-15.5 8.6-23.7 1-3 1.8-6.4 1.4-9.7 0-.4.2-.7.4-.9.4-.4.2-.9-.4-.9-.5-.4 0-.9-.3-1.3l-2.4 1.1c-.9-.2-1.5.2-2 .7A113.6 113.6 0 0 0 134 28.6c-2.5 2.8-4.5 6-7.1 8.6-.2.2-.2.6-.5.9-.4-.5-.4-1-.6-1.4-1.1-2.6-2.2-5.5-3.8-8.1a45.9 45.9 0 0 0-6.4-10.2c0-.3-.2-.5-.4-.5 0-.2 0-.2-.3-.2 0-.4-.2-.7-.6-.9 0-.2-.3-.2-.3-.2-.2-.2-.2-.7-.4-.9a57 57 0 0 0-7.3-7.3c-.9-.9-2-1.5-2.9-2.2-1.3-.9-1.3-.9-2.2.4V7c-.7.2-1.1.4-1.1 1.3 0 .2-.2.4-.2.9-1.1 1.7-1.8 3.5-2.7 5.3-2 4.2-3.3 8.6-3.7 13.3-.3 2-.5 3.7-1 5.7a10 10 0 0 0-.1 5.1c-.3 0-.5 0-.5-.2-.7-.7-.9-1.6-1.1-2.2-.4-1.8-1.1-3.3-2.2-4.9l-.2-.4-.3-.3.3.3c0-.3 0-.3-.3-.3-.2-.8-.8-1.5-1.5-2.2 0-.2 0-.2-.2-.2 0-.2-.2-.2-.2-.2 0-.5-.3-.7-.7-.9l-.2-.2-.3-.2.3.2.2.2c0-.2-.2-.2-.2-.2 0-.2-.3-.2-.3-.2a20.7 20.7 0 0 0-3.5-4c0-.2-.2-.2-.2-.2 0-.3-.2-.3-.2-.3l-.3-.2A50.6 50.6 0 0 0 76 17l-.2-.2-.3-.2c-.2-.4-.6-.7-1-.9-.3-.2-.5-.6-1-.6-2-1.8-4-3.4-6.2-5L67 10c0-.3-.2-.3-.2-.3l.2.3c-.2 0-.2-.3-.2-.3-1.3-1-2.7-2-4.2-2.6-.2-.2-.5-.2-.7-.2-.7-.5-1.5-1-2.2-1.1a14 14 0 0 0-5-1.8c-.8-.5-1.2-.2-1.6.2-.5.4-.3.9.2 1.3.4.7 1 1.4 1.7 2 2.7 2.5 4.7 5.3 6.2 8.7 1.2 2.4 2 5 2.7 7.7.9 3.1 1.3 6.2 2 9.5 1.1 4.9 2 9.5 2.9 14.4.4 2.7 1 5.1 1.3 7.8-.2.4.2 1-.2 1.3-1.6-2.2-3.3-4-5.1-5.8l-5.5-4.6c0-.5-.3-.7-.5-.9-.7-.4-.9-.9-1.5-1.3-1.1-1-2.3-2-3.6-2.5-.2.3-.4.3-.6.3l-3.1-1.8c-5.6-2.9-11.3-5.3-17.3-7.5A63.5 63.5 0 0 0 18 29.7a10 10 0 0 0-4.4.2c-.5.2-.7.4-.7.9-.2.4 0 .6.4.9.3.2.7.4 1.1.4A63.7 63.7 0 0 1 26 37.9a80.1 80.1 0 0 1 23.7 24l5 8.7c.1.2.3.4.1.9h-.2l-.7-.2A102 102 0 0 0 18 58.7c-3.1-.5-6-.5-9-.5-.3 1.3.1 2.4 1 2.7 1.6.2 2.9 1 4.2 1.7a86.6 86.6 0 0 1 24 18.6A262.4 262.4 0 0 1 53 96.5c-3.6-.9-7.1-1.8-10.7-2.4-3-.5-6.2-1.1-9.3-1-.4 0-.8 0-.8.5s.4.5.6.7c2.7 1.3 4.9 2.9 7.3 4.6 2.2 1.6 4.2 3.1 6.4 4.5 2.7 1.5 5.1 3.3 7.6 5l4.4 3.8c-.9.9-1.6 2-2.2 3.1-.2.7-.7 1.1-1.4 1.1-.8.2-1.7.5-2.6 1-2 1.2-4 2.3-6.2 3-.4.2-1.1.4-1.6.9h-.2c-.2 0-.9 0-.6-.5.2-.8.2-2.2 1.3-2.8 1-.7 2.4-1.4 3.8-1 .4.3 1 0 1-.6 0-.4-.2-.9-.6-1-.4-.3-.9-.5-1.3-.3-1.4 0-2.7.7-3.8 1.3-.9.5-1.5 1.1-1.8 1.8-.4.7-.6 1.5-.6 2.4-.3 1.6 0 3 0 4.5 0 .8 0 2-.7 2.8-.4.5-.7 1.1-.9 1.8-.6 2-1.8 4-3 5.5l-2.7 3.4a9.9 9.9 0 0 0-2.7 5.7c0 .7-.2.9-.9 1.1a22.3 22.3 0 0 0-6.2 6.2 8 8 0 0 0-2.2 1.6l-.9.2a5.8 5.8 0 0 0-5 3.7c0 .3-.3.5-.5 1a10 10 0 0 0-1.1 6.1c.2 1.8 1.3 3.6 1.3 5.3v1a9 9 0 0 0 1.6 4.6c-.5.2-1 .4-1.4.4a6.7 6.7 0 0 0-3 2.5c-.7 1-1.4 2.2-1.8 3.3-.7 1.5-1 3-1.6 4.6-1.8 2-2.6 4.4-2.6 7.1 0 .9 0 1.8-.3 2.7 0 .2-.2.6.3.8-.3.7-.7 1-1.1 1.6-.7.7-1.4 1.3-1.8 2.2-1.8.5-2.7-.2-2.5-2l.3-1.5c0-.7-.3-.7-1-.5-.4.2-.6.5-.8 1-.4.6-.4 1.5-.4 2.1-.3 1.1.2 2.2 1 2.9 1.4.9 2.5 2.2 4.3 2.2l.9.5c0 .2.2.6-.3.4-.2 0-.4 0-.6.4-.3.5 0 .7 0 1.1.4 1.8.6 3.4.6 5.1h-.4c0 1 .2 1.8.7 2.7 0 1.1 0 2.4-.3 3.5-.4 3-.4 5.8-.4 8.7.2 2.4.4 4.6 1.3 6.8v1.8a38.9 38.9 0 0 0 2 10.8c0 .3.2.3.2.5s.3.4.5.4h.2-.2l-.2.3c-2-.3-3.8-2.7-3.1-4.7 0-.2.4-.4 0-.7-.5-.2-.7.3-1 .5-.2.2-.2.4-.2.9a5 5 0 0 0 2.3 4.6c.6.5 1.3.2 1.7.7.5.4-.2 1.3.3 2 .2 4.2.8 8.6 1.5 12.8.4 2.9.7 5.5 2.7 8 .6.9 1.3 1.5 2.2 2.2-.7 2-1 4-1.1 6.2l-.3.2c-.4.9-.6.9-1.3.5-.9-.7-1.5-1.4-1.5-2.5 0-.9-.3-1.8.6-2.4.5-.5 0-1.1-.2-1.3-.4-.5-.7-.3-.9.2a5.8 5.8 0 0 0-.9 5.3c1 2.4 2.5 4.2 5.3 4.2h.7c1.6 1.3 2.9 2.7 4.2 4.2.2 1.1 1.3 1.1 2.2 1.6 0 1 .7 2.2 1.4 3 .6 1 1 1.8.8 3-.2.8.3 2 .5 2.8l.7 2c.2.2 0 .4.2.7.2.4.2 1 .6 1.5 0 .2 0 .2.3.5.2.2 0 .4.2.6 0 .2.2.2.2.5.2.2 0 .4.2.6l1.4 2.2c2 3.8 4.4 7.6 8 10.2.4.2.6.7.8 1.1l.4.7c.7 2.2 1.4 4.6 1.6 7-.2.5-.4.7-.9.5a9.4 9.4 0 0 1-3.8-4c-.2-.4-.2-.9 0-1.3.3-.4 0-.7-.2-.9-.4-.2-.9 0-.9.5-.2 1.3-.4 2.6.5 3.7.6 1 1 1.8 2 2.5 2 2 3.7 2.4 5.7.8.3 0 .3-.2.5-.2l1 .2c1.6.3 3 1.4 4.5 1.4.9.2 1.6.9 2 1.5a56.5 56.5 0 0 0 19.3 14c.6.8 1.5.6 2.4 1l.9.3h.2c0 .2-.2.4-.2.9 0 .2.2.2.2 0l.4-.7h.5c.2 0 .4 0 .6.2 2 1.1 4.3 1.4 6.5 1.8 3 1.6 6.6 2 10 1.3.6-.2 1.5-.2 2.1-.2 1.1.2 2 0 3.1-.2 0 .7.3.7 1.1.9h1l.4.2h.6c.3 0 .3 0 .5-.2l2.4.4c1.3 0 2.7 0 3.8.2.6.7 1.5.7 2.4.3-.9 1-1.5 2.2-2.2 3.5 0 .4-.2.9.2 1.1.5.2.9 0 1.1-.2.7-.5 1.1-.9 1.6-1.6.2-.4.4-.8.9-1.3.4.7.8 1.1 1.5 1.1.2 0 .2-.2.5-.2.2-.2.4-.4.6-.4.2 0 .5-.3.5-.5 0-.4.4-.9.4-1.3l.2-.2c1.6.8 3.1.4 4.5-.3 1-.2 2.2-.4 3.3-.4 1.5-.7 3.3-1.1 4.8-2 .5-.2.7 0 1.1 0 1.6.4 3.1.4 4.5.2 2.6-.2 5.5-.9 8-1.5 3.5-1.1 6.8-2.9 9.2-5.8a5.3 5.3 0 0 1 3.8-2c1.1-.2 2.4-.2 3.5-.6 3-1.1 5.1-3.1 6.2-6 .3-.7.7-1.1 1.4-1.1.9-.2 1.7-.5 2.6-.9 2-1.3 4-2.4 6.2-3.1.5-.2 1.1-.4 1.6-.9h.2c.2 0 .9 0 .7.5-.3.8-.3 2.2-1.4 2.8-1 .7-2.4 1.4-3.7 1-.5-.3-1.1 0-1.1.6 0 .4.2.9.6 1 .5.3 1 .5 1.3.3 1.4 0 2.7-.7 3.8-1.3.9-.5 1.6-1.1 1.8-1.8.4-.7.6-1.5.6-2.4.3-1.6 0-2.9 0-4.4 0-1 0-2 .7-3 .5-.4.7-1 .9-1.7.7-2 1.8-4 3-5.5l2.8-3.4a9.9 9.9 0 0 0 2.6-5.7c0-.7.2-.9.9-1.1a22.3 22.3 0 0 0 6.2-6.2 8 8 0 0 0 2.2-1.6l.9-.2a5.8 5.8 0 0 0 5-3.7c0-.3.3-.5.5-1 1.1-2 1.3-4 1.1-6.1-.2-1.8-1.3-3.6-1.3-5.3v-1a9 9 0 0 0-1.5-4.6c.4-.2.8-.4 1.3-.4a6.7 6.7 0 0 0 3-2.4 24 24 0 0 0 1.8-3.4c.7-1.5 1-3 1.6-4.6 1.8-2 2.7-4.4 2.7-7.1 0-.9 0-1.8.2-2.7 0-.2.2-.6-.2-.8.2-.7.6-1 1-1.6.7-.7 1.4-1.3 1.8-2.2 1.8-.4 2.7.2 2.5 2l-.3 1.5c0 .7.3.7 1 .5.4-.2.6-.5.8-1 .5-.6.5-1.5.5-2.1.2-1.1-.3-2.2-1.1-2.9 0-2.4-1.2-3.5-3-3.5ZM15 195.9s.2 0 0 0c.2 0 0 0 0 0Zm3.8 12c-.3 0-.3 0 0 0Zm2-15.1s-.3 0 0 0c-.3 0-.3 0 0 0Zm-.5-36.5s-.2 0 0 0c-.9.6-.6 1.3-.4 2 .2 2.4.4 5-1.8 6.8-1.5-3.3-1.1-6.6 2-9 .2-.3.7-.5.9-1v.7c-.2.2-.5.5-.7.5ZM26.6 283s0-.2 0 0c.2-.2.2 0 0 0 .2 0 .2 0 0 0Zm.7-.9s0-.2 0 0c0-.2 0-.2 0 0 0-.2 0-.2 0 0Zm.9-76.4c0-.2 0-.2 0 0 0-.2 0-.2 0 0 0-.2 0-.2 0 0Zm2 3.6c0-.2 0-.2 0 0 0-.2 0-.2 0 0 0-.2 0-.2 0 0Zm.8 43.8s0 .2 0 0c0 .2 0 .2 0 0Zm.3-7.5c-.3 0-.3 0 0 0Zm.6 48.2c0-.2 0-.2 0 0 0-.2 0-.2 0 0Zm1.1-22.3c0-.2 0 0 0 0Zm6.7 20.3v-.2.2Zm2.9 1.4c0-.3 0-.3 0 0 0-.3 0-.3 0 0 0-.3 0 0 0 0Zm103-164s0 .2 0 0c0 .2 0 .2 0 0 0 .2 0 .2 0 0ZM127 160s0-.2 0 0Zm-10.9 8.7c0 .2 0 .2 0 0-.2.2-.2.2 0 0-.2.2-.2.2 0 0 0 .2 0 .2 0 0Zm-2.8 5.7v-.2.2Zm-5.8-12c0 .3-.2.3 0 0Zm-1.5 6c-.3 0-.3 0 0 0Zm-18 10.7c-.2 0-.2 0 0 0Zm-11-17.3s-.3 0 0 0Zm-6.2 38c0 .3 0 .3 0 0 0 .3 0 .3 0 0Zm-1-48.6s0 .2 0 0Zm-.6 53.3s.2 0 0 0Zm-6.2-61c-.2 0 0 0 0 0Zm-7.5 7.2c0 .3 0 .3 0 0 0 .3 0 .3 0 0 0 .3 0 .3 0 0Zm-4.2 5.1c.2 0 .2 0 0 0 .2 0 .2 0 0 0ZM47 134.1c0 .3-.2.3 0 0-.2.3-.2.3 0 0-.2 0-.2 0 0 0-.5 0 0 0 0 0Zm-1.6 39s0-.2 0 0c0-.2 0 0 0 0ZM47 282.4c0-.2 0-.2 0 0 0-.2 0-.2 0 0 0-.2 0-.2 0 0Zm.2-10.8s.2 0 0 0c.2 0 0 0 0 0Zm3.3 16c.2 0 .2 0 0 0ZM67.3 326c-.2 0-.2 0 0 0-.2 0 0-.2 0 0 0-.2 0 0 0 0Zm5.8 9.3s.2 0 0 0Zm.7-10.4c-.3 0-.3 0 0 0-.3 0-.3 0 0 0-.3 0-.3 0 0 0Zm.8 13.3c-.2 0-.2 0 0 0-.2 0-.2 0 0 0Zm2.3-5.8.2-.4-.2.4Zm.4-23.4c0-.2 0-.2 0 0 0-.2 0-.2 0 0 .2-.2.2 0 0 0Zm.4 23.2s0 .2 0 0c0 .2 0 .2 0 0Zm4.5 1.6c.2 0 .2 0 0 0 .2 0 .2 0 0 0Zm4.6-22c0-.2 0 0 0 0Zm8 15.6c0-.3 0-.3 0 0 0-.3 0 0 0 0Zm9.7-47.9s0-.2 0 0c0-.2 0-.2 0 0 0-.2 0-.2 0 0 0-.2 0-.2 0 0 0-.2 0 0 0 0Zm0 34.6s0-.2 0 0c0-.2 0-.2 0 0 0-.2 0-.2 0 0 0-.2 0-.2 0 0 0-.2 0-.2 0 0Zm0-20.2s.2 0 0 0c.2 0 .2 0 0 0 .2 0 0 0 0 0Zm1.4-17.2c-.3 0-.3 0 0 0-.3 0-.3 0 0 0Zm-.3-6h.5c0 .2-.2.2-.5 0Zm3.1.4v.3-.3Zm.5 55.6v-.5.5Zm4.2-3.5c.2 0 .2 0 0 0 .2 0 .2 0 0 0 .2 0 .2 0 0 0Zm2.6 18.1c0-.2 0-.2 0 0 0-.2 0-.2 0 0 0-.2 0-.2 0 0 0-.2.3-.2 0 0 .3-.2.3 0 0 0Zm3.6 4.4s.2 0 0 0Zm2.4-22.5s0 .2 0 0c0 .2 0 0 0 0Zm.9-5.8c0-.2 0-.2 0 0 0-.2 0-.2 0 0Zm16.2 22.6c.2 0 .2 0 0 0 .2 0 .2 0 0 0 .2 0 .2 0 0 0Zm1.5-25.5c0-.2 0-.2 0 0 0-.2 0-.2 0 0Zm7-37.2c0-.2 0-.2 0 0 0-.2 0-.2 0 0Zm2 1.8c-.1 0-.1 0 0 0-.1-.2-.1-.2 0 0-.1-.2 0-.2 0 0Zm5 47.4c.2 0 .2 0 0 0 .2 0 .2 0 0 0Zm11.2-32.1s0-.2 0 0c.3-.2.3 0 0 0 .3 0 .3 0 0 0Zm3.6-10.9s0-.2 0 0c.2-.2.2 0 0 0 .2 0 0 0 0 0Zm-16.8-36.3c-2.3 0-5.6-.4-9.8-1.3a200.7 200.7 0 0 1 4.2 37.2c0 10.2-1.5 18-4.8 23.4-3.4 5.4-7.8 8-13.1 8-6.9 0-11.7-4.9-14.6-14.4-2.4-8.2-4-20.1-4.2-35.6l-1.3 1.1a21.1 21.1 0 0 1-12.7 4.9c-3 0-6-1.1-8.6-3.1-2.7-2.2-4.6-5.1-6-8.7-4.8 8-11 12-18.6 12-5.7 0-10.6-2.2-14-6.4a25.1 25.1 0 0 1-5.2-16.8 47.9 47.9 0 0 1 19.3-37.8c5.7-4.3 11.9-6.3 18.3-6.3 2 0 3.5.4 4.2 1.1.7.9 1.3 2.2 1.8 4.4 2-.4 4-.6 6.2-.6 4.6 0 6.8 1.5 6.8 4.8 0 2-.6 6.7-2.2 14.2A134.8 134.8 0 0 0 95 250c0 1.3.5 2.6 1.1 3.3.7.9 1.6 1.3 2.7 1.3 1.7 0 4-1 6.4-3.5 1.3-1.1 2.9-2.7 4.6-4.7a268 268 0 0 1 5.8-45.3c4-18.6 9.3-34.1 16.2-46.3 6.8-12.2 14.3-18.4 22.5-18.4 4.5 0 8 2 10.4 6 2.5 4 3.8 9.3 3.8 16 0 22-13.3 46.2-39.8 72.6-1 9.3-1.4 17.2-1.4 24.3 0 9.7.2 19.7 1 29.9.6 10.2 1.7 15.3 3.2 15.3 3 0 4.2-5 4.2-14.9 0-7.3-.4-14.4-1.5-21.4-.9-7-2.4-14.2-4-22 0-1.3.2-2.8 1.1-4.6.9-2 2-3.5 3.3-4.9 1.4-1.3 2.5-2.2 3.6-2.2 2 0 4.2 0 6.8.2 1 0 1.8.3 3 .3 3.7 0 7.9-.3 12.5-1l2.5-.2 2.6-.2c2.7 0 4 2 4 6 .4 8-5.3 11.7-17 11.7Zm15.7-60.2s0-.2 0 0c0-.2 0-.2 0 0ZM134 266.5c0-.2 0-.2 0 0ZM171 158c0-.2 0-.2 0 0 0-.2 0-.2 0 0 .3-.2.3-.2 0 0 .3-.2.3-.2 0 0 .3-.2.3-.2 0 0Zm3.4 16s0-.3 0 0c0-.3 0 0 0 0Zm.2-12.2s0-.2 0 0c0-.2 0 0 0 0Zm0 1.3c.2 0 .2.2 0 0 .2.2 0 .2 0 0Zm.2 113.6c0 .2 0 .2 0 0 0 .2 0 .2 0 0Zm0 34.5c.2.2-.2.2 0 0Zm.9-28.6s0-.2 0 0Zm.4-10.1s.3 0 0 0c.3 0 0 0 0 0Zm.7 10.1c.2 0 .2 0 0 0 .2 0 0 0 0 0Zm1.3 25.5s0 .2 0 0c0 .2 0 .2 0 0Zm1.1-155.6c-.2 0-.2 0 0 0-.2-.2 0-.2 0 0 0-.2 0-.2 0 0Zm1 92.5c.1 0 .1 0 0 0 .1 0 .1 0 0 0 .1 0 .1 0 0 0Zm2-91.4c-.3 0-.3 0 0 0v-.2.2Zm-.3-25.2c.2 0 .2 0 0 0 .2 0 0 0 0 0Zm6.6 45.6c.3 0 .3 0 0 0Zm1.1-22.4s0 .2 0 0c0 .2 0 0 0 0Zm.5 56.5c.2 0 .2 0 0 0Zm.9-20.8c0-.3 0-.3 0 0Zm2.4 52.6c0-.2 0-.2 0 0 0-.2 0 0 0 0Zm1.6-77.4c-.3 0 0 0 0 0Zm6 90c0 .3 0 .3 0 0 0 .3 0 .3 0 0Zm2.6 27.7c1.5 3.3 1 6.7-2 9-.2.3-.7.5-.9 1v-.7l.5-.4h.2c.9-.7.4-1.4.4-2-.2-2.5-.6-5.1 1.8-6.9Zm-.9-42.5s.2 0 0 0c.2 0 .2 0 0 0 .2 0 0 0 0 0Z"/></svg>